<svg xmlns="http://www.w3.org/2000/svg" width="361.974" height="89.066"><g fill="#FFF" fill-rule="nonzero"><path d="M19.71 89.066q-4.524 0-8.619-1.56t-6.669-4.758-2.574-7.956q0-4.212 1.872-6.591t4.68-3.315 5.46-.936q-2.496 2.652-3.783 5.46T8.79 74.792q0 2.652 1.365 4.953t4.095 3.744 6.786 1.443q3.51 0 6.825-1.17t5.46-3.51 2.145-5.85q0-3.198-1.833-5.499t-4.719-4.134a85 85 0 0 0-6.084-3.51 64 64 0 0 1-6.084-3.627q-2.886-1.95-4.719-4.524t-1.833-6.162q0-3.198 1.599-6.825t4.563-6.825 7.176-5.187 9.36-1.989q5.382 0 7.566 2.262t2.184 5.928q0 2.886-1.014 6.162a44 44 0 0 1-2.457 6.24q-1.443 2.964-2.769 5.07-1.716-.39-2.574-1.365t-.858-2.613.663-3.666a61 61 0 0 1 1.56-4.212 57 57 0 0 0 1.56-4.251q.663-2.067.663-3.627 0-1.404-.819-2.184t-3.315-.78q-3.744 0-6.864 1.638t-5.421 4.134-3.549 5.265-1.248 5.031q0 2.808 1.794 4.797t4.641 3.627 6.006 3.276a50 50 0 0 1 6.006 3.666q2.847 2.028 4.641 4.836t1.794 6.864-1.833 7.176-4.953 5.265-6.903 3.276a26.7 26.7 0 0 1-7.683 1.131M68.46 85.244q-2.652 0-3.549-2.301t-1.053-5.499q.078-.936.117-2.574t.117-2.73a77 77 0 0 1-3.588 5.85q-1.95 2.886-4.134 4.758t-4.602 1.872q-2.652 0-4.368-2.379t-1.716-5.733q0-2.262.741-5.226a44 44 0 0 1 1.872-5.772q1.131-2.808 2.34-4.68t2.145-1.872q.546 0 1.911.624t1.677 1.638q-.858 1.248-2.067 3.822a42 42 0 0 0-2.106 5.499q-.897 2.925-.897 5.343 0 .468.117 1.599t.663 2.067 1.638.936q1.716 0 3.627-2.106t3.861-5.304 3.666-6.552q.702-3.354 1.17-4.836t.975-1.872 1.209-.39q1.482 0 2.301.585t.819 1.677q0 .078-.156.663t-.234.741q-.468 1.638-.858 3.939a63 63 0 0 0-.624 4.914 59 59 0 0 0-.234 5.265q0 1.872.234 2.925t1.17 1.053q1.092 0 2.535-1.326t3.042-3.51a55 55 0 0 0 3.12-4.797 68 68 0 0 0 2.769-5.265q0-4.056.585-6.162t1.56-2.925 2.145-.819q1.95 0 2.691 1.248t.741 2.106q0 .78-.39 1.443t-.624 1.209q-.546 1.17-1.053 2.808t-.507 4.134q0 1.326.273 2.691t1.014 2.223 2.145.858 2.847-1.248 3.159-4.68l1.482 1.17q-1.716 4.056-3.9 5.577t-4.212 1.521q-2.574 0-4.368-1.872T82.89 70.97a83 83 0 0 1-4.329 6.669q-2.379 3.315-4.953 5.46t-5.148 2.145"/><path d="M130.704 86.102q-4.758 0-7.332-2.535t-2.964-6.123q-3.354 3.9-7.644 6.084t-8.658 2.184q-5.07 0-7.761-2.691t-2.691-6.669q0-3.432 1.755-7.254t4.719-7.215 6.552-5.538 7.332-2.145q2.028 0 3.783 1.014t1.755 4.134q0 2.886-1.716 5.421t-4.602 4.485-6.357 3.198a30.6 30.6 0 0 1-6.981 1.638 5 5 0 0 0-.117.819q-.039.507-.039 1.131 0 1.404.468 2.847t1.755 2.457 3.861 1.014q4.134 0 8.073-2.691t6.903-6.747q.702-3.198 2.496-6.318a26.5 26.5 0 0 1 4.407-5.694q2.613-2.574 5.694-4.134t6.279-1.56q2.106 0 3.861 1.014t1.755 4.212q0 3.822-2.691 6.786t-6.942 4.797-9.009 2.379q-.078.39-.117.819t-.039 1.053q0 1.404.429 2.886t1.677 2.535 3.744 1.053q3.354 0 6.747-1.95t6.318-5.109 4.797-6.825l1.404 1.092q-2.106 4.68-5.421 8.307t-7.293 5.733-8.19 2.106m-29.952-14.508q2.184-.78 4.641-2.067a34 34 0 0 0 4.68-2.964q2.223-1.677 3.627-3.588t1.404-3.939q0-.624-.273-.975t-1.131-.351q-1.638 0-3.549 1.209t-3.744 3.237a29 29 0 0 0-3.315 4.485 26 26 0 0 0-2.34 4.953m26.754 0a49 49 0 0 0 4.329-1.755 28 28 0 0 0 4.329-2.457q2.028-1.404 3.354-3.159t1.326-3.861q0-.936-.312-1.287t-1.17-.351q-2.184 0-4.524 1.833t-4.29 4.758a25.5 25.5 0 0 0-3.042 6.279"/><path d="M155.274 85.868q-3.432 0-5.538-2.028t-2.106-6.162q0-3.198 1.209-7.956a98 98 0 0 1 3.081-9.828 11 11 0 0 0-1.287-.273 5.8 5.8 0 0 1-1.443-.429v-2.418q1.248.156 2.067.234t1.677.156a106 106 0 0 1 3.549-7.995q1.911-3.861 3.822-6.903t3.627-4.797 3.042-1.755q.78 0 1.482.585t.702 1.677q0 1.56-1.599 4.446a205 205 0 0 1-3.939 6.747 116 116 0 0 0-4.524 8.229h2.418q3.432 0 6.201-.117a87 87 0 0 0 5.655-.429v2.574q-4.29.39-7.878.624t-6.864.312h-.936a74 74 0 0 0-2.847 7.839q-1.209 4.017-1.209 7.839 0 3.198 1.014 4.524t3.198 1.326q3.9 0 7.995-3.549t7.137-9.633l1.092.78q-2.028 4.602-5.031 8.346t-6.513 5.889-7.254 2.145M190.53 89.066q.39-1.17 2.301-5.343t5.148-11.154l7.683-16.575a3274 3274 0 0 0 9.906-21.606q.312-.624.507-1.326t.195-1.248q0-.78-.468-1.248t-1.794-.468q-3.276 0-5.343 1.989t-3.042 4.875-.975 5.694q0 .702.078 1.638t.234 2.106q-1.872 0-3.081-1.131t-1.833-2.808-.624-3.159q0-2.496 1.443-4.836t3.783-4.251a18.8 18.8 0 0 1 5.187-3.003q2.847-1.092 5.655-1.092 2.886 0 4.914 1.599t3.12 5.772 1.092 11.973q0 5.07-.351 10.257a530 530 0 0 1-.741 9.711q-.39 4.524-.39 7.722 1.56-4.602 3.861-9.789a187 187 0 0 1 4.953-10.296 285 285 0 0 1 5.226-9.633 312 312 0 0 1 4.641-7.917q2.067-3.393 3.159-5.031 1.092-1.716 1.95-2.574t2.34-.858q1.092 0 3.432.858-.702 1.482-1.638 4.719t-2.028 7.527q-1.17 4.68-2.34 10.257a261 261 0 0 0-2.106 11.271 224 224 0 0 0-1.521 10.803q-.585 5.109-.585 9.009 0 2.028.195 3.198t.546 2.067.819 2.301q-3.354 0-5.109-1.014t-2.34-3.237-.585-5.889q0-8.658 1.989-18.213a400 400 0 0 1 4.641-19.695q-2.184 3.12-4.524 7.41a183 183 0 0 0-4.602 9.048 325 325 0 0 0-4.29 9.399 268 268 0 0 0-3.588 8.58q-1.56 3.939-2.418 6.591-.702.234-.975.312a2.4 2.4 0 0 1-.663.078q-2.73 0-3.471-3.315t-.741-9.087q0-3.042.078-6.513t.234-7.098a340 340 0 0 0 .312-14.079q0-1.17-.039-2.34a68 68 0 0 1-.039-2.262 2799 2799 0 0 0-10.023 23.595q-4.095 9.789-6.981 15.912t-5.304 8.97-5.07 2.847M257.766 84.62q-2.652 0-4.329-2.457t-1.677-5.655q0-2.184.702-5.148a40 40 0 0 1 1.833-5.772q1.131-2.808 2.34-4.68t2.223-1.872q.546 0 1.677.585t1.989 1.443q-.858 1.248-2.067 3.822a45 45 0 0 0-2.145 5.538q-.936 2.964-.936 5.382 0 .312.117 1.482t.585 2.184 1.638 1.014q1.326 0 2.847-1.443t3.12-3.744a68 68 0 0 0 3.12-4.953 84 84 0 0 0 2.73-5.148 196 196 0 0 0 1.989-4.212q.702.078 1.833.39a8.2 8.2 0 0 1 1.989.819q.858.507.858 1.443 0 .234-.741 1.911a209 209 0 0 0-1.716 4.017 50 50 0 0 0-1.716 4.797q-.741 2.457-.741 4.329 0 1.092.429 1.911t1.677.819q1.638 0 3.9-1.482t4.68-4.29 4.29-6.708l1.17.936q-1.716 4.212-4.446 7.566t-5.85 5.265-6.084 1.911q-2.262 0-3.393-1.053t-1.521-2.73a18.7 18.7 0 0 1-.468-3.393v-1.56a49 49 0 0 1-2.886 4.095q-1.56 1.989-3.315 3.315t-3.705 1.326"/><path d="M295.362 86.258q-3.9 0-6.279-1.599t-3.393-4.056a13.1 13.1 0 0 1-1.014-5.031q0-2.262.624-3.51t1.56-1.833a10.2 10.2 0 0 1 1.755-.897q.819-.312 1.209-.702 1.95-2.028 4.017-4.719a30.2 30.2 0 0 0 3.549-5.967v-.78q0-3.12 1.053-4.407t2.457-1.287q.936 0 1.365.468t.507 1.092q0 .468-.195 1.092t-.195 1.716q0 2.34 1.131 5.343a193 193 0 0 1 2.262 6.357 21.3 21.3 0 0 1 1.131 6.864q0 .936-.078 1.716t-.234 1.482q2.418-.624 4.758-2.691t4.446-6.123l.936.702q-1.482 4.446-4.29 7.137t-6.552 3.315q-1.248 3.198-4.095 4.758t-6.435 1.56m-.546-3.432q1.56 0 2.886-.78t2.106-2.262q-3.198-.702-5.772-2.496t-3.978-3.666q-1.092.234-1.092 2.106 0 2.574 1.482 4.836t4.368 2.262m5.616-5.382q.156-.546.195-1.287t.039-1.131a31.4 31.4 0 0 0-.936-6.942 705 705 0 0 1-1.716-7.02 100 100 0 0 1-3.276 5.226q-1.872 2.808-3.51 4.524 1.248 2.106 3.666 3.978t5.538 2.652"/><path d="M319.854 84.62q-3.432 0-5.148-2.028t-1.716-4.914q0-1.794.624-4.524t1.755-5.733a42 42 0 0 1 2.613-5.655q1.482-2.652 3.198-4.329t3.432-1.677q.936 0 1.638.546t.702 1.716q0 1.014-1.209 3.042t-2.808 4.68a44 44 0 0 0-2.808 5.499q-1.209 2.847-1.209 5.421 0 2.496.897 3.315t2.613.819q2.652 0 5.772-2.652t6.474-9.282l1.17 1.248q-2.73 6.864-6.942 10.686t-9.048 3.822m9.204-35.178a5.05 5.05 0 0 1-2.691-.741q-1.209-.741-1.209-2.301 0-1.872 2.028-3.198t4.212-1.326q1.404 0 2.379.624t.975 2.262-1.794 3.159-3.9 1.521"/><path d="M341.46 86.648q-4.056 0-6.669-2.535t-2.613-7.761q0-3.822 1.482-7.488a23.8 23.8 0 0 1 3.978-6.591q2.496-2.925 5.577-4.641t6.279-1.716q3.276 0 4.719 1.638t1.443 3.822-1.053 4.251-2.847 2.067q-1.482 0-2.418-1.482.78-.546 1.638-2.028t.858-3.822q0-.624-.312-.975t-1.17-.351q-1.95 0-4.095 1.755t-3.978 4.524a28 28 0 0 0-2.964 5.85q-1.131 3.081-1.131 5.655 0 2.184 1.131 4.017t4.407 1.833q2.964 0 6.162-1.716t6.006-4.797 4.524-7.371l1.56 1.404q-1.872 4.758-5.187 8.463t-7.332 5.85-7.995 2.145M12.024 19.368q-.888 0-1.992-.36a26 26 0 0 1-2.268-.864q-1.164-.504-2.268-.96A4.7 4.7 0 0 1 4.2 18.192q-.696.36-1.488.36-.84 0-1.452-.372a2.74 2.74 0 0 1-.936-.9Q0 16.752 0 16.32q0-.48.432-.84t1.536-.36q.648 0 1.428.132t1.596.348q.552-.96 1.02-2.256t.924-2.724.912-2.796Q6.648 7.416 6 6.684t-.648-1.476q0-.48.24-.948t.696-.792a1.8 1.8 0 0 1 1.08-.324q-.312.384-.396.864t-.084.768q0 .792.36 1.344t.888.864a42 42 0 0 1 .972-2.628q.516-1.26 1.152-2.232T11.676.576A2.9 2.9 0 0 1 13.44 0q.552 0 1.164.228t1.056.78.444 1.584q0 .816-.348 1.752a5.8 5.8 0 0 1-1.092 1.788q-.744.852-1.908 1.416t-2.82.612H9.72q-.456 1.392-.96 2.808a38 38 0 0 1-1.08 2.712q-.576 1.296-1.248 2.304.936.264 2.076.6t2.28.564 2.004.228q.576 0 1.068-.132t1.044-.396q-.48 1.344-1.188 1.932t-1.692.588m-9.552-1.704q.624 0 1.008-.276t.768-.684q-.744-.264-1.392-.444t-1.128-.18q-.456 0-.66.168a.51.51 0 0 0-.204.408q0 .384.48.696t1.128.312M9.984 7.368a3.5 3.5 0 0 0 1.872-.672q.816-.6 1.392-1.44t.876-1.716.3-1.524q0-.624-.24-.852a.78.78 0 0 0-.552-.228q-.696 0-1.32.888t-1.188 2.34a65 65 0 0 0-1.14 3.204M18.672 18.336q-1.536 0-2.364-.828t-.828-2.076q0-1.056.54-2.244a9.1 9.1 0 0 1 1.452-2.232 8.2 8.2 0 0 1 2.016-1.692q1.104-.648 2.208-.648.624 0 1.188.324t.564 1.284q0 .912-.528 1.704t-1.416 1.416a8.6 8.6 0 0 1-1.956 1.02 9 9 0 0 1-2.148.516 2 2 0 0 0-.036.204 4 4 0 0 0-.012.348q0 .12.036.42t.204.636.552.576 1.056.24q1.008 0 2.028-.564a8.1 8.1 0 0 0 1.92-1.5q.9-.936 1.5-2.088l.48.384q-.648 1.44-1.668 2.52a7.8 7.8 0 0 1-2.256 1.68q-1.236.6-2.532.6m-1.008-4.344q.624-.072 1.392-.432a7.8 7.8 0 0 0 1.476-.912 5.5 5.5 0 0 0 1.164-1.212q.456-.66.456-1.332 0-.264-.096-.36t-.312-.096q-.552 0-1.152.396a6.3 6.3 0 0 0-1.176 1.032 8.7 8.7 0 0 0-1.032 1.404 8.6 8.6 0 0 0-.72 1.512"/><path d="M26.256 18.384q-1.056 0-1.704-.624t-.648-1.896q0-.984.372-2.448t.948-3.024a3 3 0 0 0-.396-.084 1.8 1.8 0 0 1-.444-.132v-.744q.384.048.636.072l.516.048q.504-1.272 1.092-2.46t1.176-2.124 1.116-1.476.936-.54q.24 0 .456.18t.216.516q0 .48-.492 1.368a63 63 0 0 1-1.212 2.076q-.72 1.188-1.392 2.532h.744q1.056 0 1.908-.036a27 27 0 0 0 1.74-.132v.792q-1.32.12-2.424.192t-2.112.096H27a23 23 0 0 0-.876 2.412 8.4 8.4 0 0 0-.372 2.412q0 .984.312 1.392t.984.408q1.2 0 2.46-1.092t2.196-2.964l.336.24a11.5 11.5 0 0 1-1.548 2.568q-.924 1.152-2.004 1.812t-2.232.66"/><path d="M33.792 18.504q-1.2 0-1.932-.492a2.75 2.75 0 0 1-1.044-1.248 4 4 0 0 1-.312-1.548q0-.696.192-1.08t.48-.564.54-.276a1.1 1.1 0 0 0 .372-.216q.6-.624 1.236-1.452a9.3 9.3 0 0 0 1.092-1.836v-.24q0-.96.324-1.356t.756-.396q.288 0 .42.144t.156.336q0 .144-.06.336a1.8 1.8 0 0 0-.06.528q0 .72.348 1.644t.696 1.956.348 2.112q0 .288-.024.528t-.072.456q.744-.192 1.464-.828t1.368-1.884l.288.216q-.456 1.368-1.32 2.196a3.75 3.75 0 0 1-2.016 1.02q-.384.984-1.26 1.464t-1.98.48m-.168-1.056q.48 0 .888-.24t.648-.696a4.9 4.9 0 0 1-1.776-.768q-.792-.552-1.224-1.128-.336.072-.336.648 0 .792.456 1.488t1.344.696m1.728-1.656q.048-.168.06-.396t.012-.348a9.7 9.7 0 0 0-.288-2.136 217 217 0 0 1-.528-2.16A31 31 0 0 1 33.6 12.36q-.576.864-1.08 1.392.384.648 1.128 1.224a4.55 4.55 0 0 0 1.704.816M58.2 18.024q-.936 0-1.392-.552t-.456-1.32q0-.552.168-1.104t.336-1.092a3.3 3.3 0 0 0 .168-.972q0-.408-.156-.564a.54.54 0 0 0-.396-.156q-.552 0-1.284.84t-1.812 2.448q-.384.576-.72 1.212t-.6 1.068q-.216 0-.564-.072a2.5 2.5 0 0 1-.612-.204q-.264-.132-.264-.348t.24-.84.552-1.452.552-1.632.24-1.356q0-.336-.12-.528t-.384-.192q-.504 0-1.212.6t-1.488 1.572a17 17 0 0 0-1.464 2.16 15 15 0 0 0-1.116 2.388 2.5 2.5 0 0 1-.648-.108 3.3 3.3 0 0 1-.672-.264q-.288-.156-.288-.276 0-.024.168-.684t.408-1.644.504-2.016.456-1.8q.072-.264.528-.468t.792-.204.576.216.24.576q0 .24-.096.696a29 29 0 0 1-.24 1.032q.504-.672 1.068-1.332t1.176-1.188a6.2 6.2 0 0 1 1.224-.84 2.65 2.65 0 0 1 1.212-.312q.888 0 1.2.636t.312 1.38q0 .312-.048.612t-.132.6-.228.708q.456-.672.996-1.236t1.164-.9a2.74 2.74 0 0 1 1.32-.336q.936 0 1.296.564t.36 1.236q0 .624-.204 1.308t-.408 1.296-.204 1.044q0 .24.12.444t.48.204q.648 0 1.248-.6t1.116-1.476.876-1.668l.408.504a13.3 13.3 0 0 1-.996 2.004 6.7 6.7 0 0 1-1.428 1.704 2.83 2.83 0 0 1-1.872.684"/><path d="M62.832 18.408a2 2 0 0 1-1.38-.528q-.588-.528-.588-1.584 0-.84.384-1.824a9.3 9.3 0 0 1 1.056-1.944q.672-.96 1.536-1.74a8 8 0 0 1 1.848-1.26q.984-.48 1.968-.48 1.032 0 1.752.528t.72 1.392q0 .648-.456.936t-1.08.168q.048-.216.084-.432t.036-.456q0-.48-.192-.864t-.816-.384q-.672 0-1.368.456t-1.332 1.188a10 10 0 0 0-1.14 1.608 10 10 0 0 0-.792 1.716q-.288.84-.288 1.512 0 .768.552.768t1.224-.54 1.356-1.356 1.308-1.668 1.08-1.452q.072-.12.192-.12.096.024.372.108t.516.252.24.432q0 .24-.204.612t-.48.816a8 8 0 0 0-.48.888 2 2 0 0 0-.204.852q0 .312.168.588t.552.276q.576 0 1.62-.852t2.124-2.892l.456.456a10.3 10.3 0 0 1-1.38 2.292q-.804.996-1.692 1.56t-1.8.564q-.984 0-1.464-.624a2.44 2.44 0 0 1-.528-1.344v-.12q-.96 1.152-1.764 1.824t-1.716.672"/><path d="M79.752 18.192q-.744 0-1.296-.48a3.6 3.6 0 0 1-.888-1.2 7 7 0 0 1-.504-1.476 6 6 0 0 1-.168-1.308q.336-.072.84-.216a6.6 6.6 0 0 0 1.032-.396q.528-.252.876-.624a1.27 1.27 0 0 0 .348-.9q0-.432-.276-.696t-.78-.264q-.672 0-1.272.444t-1.116 1.164-.936 1.56-.744 1.632-.54 1.368q-.264.72-.504.972t-.696.252q-.168 0-.396-.096t-.384-.48-.156-1.224q0-1.464.408-3.216a28 28 0 0 1 1.092-3.564 39 39 0 0 1 1.5-3.468A31 31 0 0 1 76.848 3q.84-1.32 1.572-2.088t1.212-.768q.408 0 .684.492t.276 1.26q0 .816-.36 1.812a10 10 0 0 1-1.02 2.016q-.66 1.02-1.572 1.932a10 10 0 0 1-2.016 1.56 18.6 18.6 0 0 0-1.032 3.084q-.36 1.524-.456 2.7.432-.984.984-2.016t1.224-1.932T77.796 9.6t1.668-.552q.96 0 1.68.672t.72 1.68q0 .72-.384 1.248a3.3 3.3 0 0 1-.948.876 4.7 4.7 0 0 1-1.14.516 4.6 4.6 0 0 1-.984.192q.072.312.204.792t.348.936.552.768.792.312q.6 0 1.236-.552t1.248-1.464 1.092-2.016l.336.408q-.408 1.2-1.116 2.304t-1.572 1.788-1.776.684M76.32 7.584q.648-.576 1.368-1.428t1.236-1.824.54-1.86V2.4q-.24.096-.756.828a21 21 0 0 0-1.14 1.86 36 36 0 0 0-1.248 2.496"/><path d="M86.016 18.336q-1.536 0-2.364-.828t-.828-2.076q0-1.056.54-2.244a9.1 9.1 0 0 1 1.452-2.232 8.2 8.2 0 0 1 2.016-1.692q1.104-.648 2.208-.648.624 0 1.188.324t.564 1.284q0 .912-.528 1.704t-1.416 1.416a8.6 8.6 0 0 1-1.956 1.02 9 9 0 0 1-2.148.516 2 2 0 0 0-.036.204 4 4 0 0 0-.012.348q0 .12.036.42t.204.636.552.576 1.056.24q1.008 0 2.028-.564a8.1 8.1 0 0 0 1.92-1.5q.9-.936 1.5-2.088l.48.384q-.648 1.44-1.668 2.52a7.8 7.8 0 0 1-2.256 1.68q-1.236.6-2.532.6m-1.008-4.344q.624-.072 1.392-.432a7.8 7.8 0 0 0 1.476-.912 5.5 5.5 0 0 0 1.164-1.212q.456-.66.456-1.332 0-.264-.096-.36t-.312-.096q-.552 0-1.152.396a6.3 6.3 0 0 0-1.176 1.032 8.7 8.7 0 0 0-1.032 1.404 8.6 8.6 0 0 0-.72 1.512M100.512 17.52q-.576 0-.816-.3t-.24-.612q0-.264.24-.564t.6-.504.672-.204q.264 0 .528.156t.264.588q0 .192-.144.54t-.42.624a.93.93 0 0 1-.684.276m-7.368 0q-.576 0-.816-.3t-.24-.612q0-.264.24-.564t.6-.504.672-.204q.264 0 .528.156t.264.588q0 .192-.144.54t-.42.624a.93.93 0 0 1-.684.276m3.576 0q-.576 0-.816-.3t-.24-.612q0-.264.24-.564t.6-.504.672-.204q.264 0 .528.156t.264.588q0 .192-.144.54t-.42.624a.93.93 0 0 1-.684.276"/></g></svg>